<svg width="530" height="421" viewBox="0 0 530 421" fill="none" xmlns="http://www.w3.org/2000/svg">
<g clip-path="url(#clip0)">
<path d="M167.325 263.956C167.047 263.956 167.047 263.956 167.325 263.956C166.492 263.956 165.937 264.233 165.105 264.233C165.937 264.233 166.492 263.956 167.325 263.956Z" fill="white"/>
<path d="M171.487 159.814L143.461 167.846L138.466 202.745L105.445 179.756L74.3667 193.328L105.445 256.201L120.43 250.107C122.372 248.169 124.592 246.507 127.089 245.122L117.655 214.378L143.183 229.334L158.168 206.899L163.717 235.151L183.697 229.888L188.136 229.057L185.361 217.978L171.487 159.814Z" fill="white"/>
<path d="M224.21 229.334L227.262 258.694L209.225 261.186L205.34 235.705L188.969 242.075L201.456 306.333L215.885 303.84L212 275.035L230.592 271.988L232.534 298.855H247.241V226.842L224.21 229.334Z" fill="white"/>
<path d="M324.105 161.476C324.105 161.753 324.383 162.307 324.383 162.584C324.383 162.861 324.66 163.138 324.66 163.415C324.938 163.969 324.938 164.245 325.215 164.799V165.076C325.215 165.63 325.493 165.907 325.77 166.461C328.545 171.447 332.43 175.601 336.869 178.648C340.199 181.141 344.084 182.526 348.246 183.357C349.356 183.634 350.466 183.634 351.576 183.634C352.131 183.634 352.964 183.634 353.519 183.634C354.351 183.634 355.184 183.357 356.016 183.357C356.571 183.357 357.126 183.08 357.681 183.08C357.958 183.08 357.958 183.08 357.958 183.08C358.513 182.803 359.346 182.803 359.901 182.526C360.456 182.526 361.288 182.249 361.843 181.972C362.398 181.695 362.676 181.695 363.231 181.418C363.231 181.418 363.508 181.141 363.786 181.141C364.341 180.864 365.173 180.587 365.728 180.31C366.283 180.033 366.838 179.756 367.393 179.479C369.058 178.925 370.445 178.094 371.833 177.263C373.775 176.155 375.163 175.047 376.273 174.217C376.55 174.217 376.55 173.94 376.828 173.663C377.105 173.663 377.383 173.386 377.383 173.109L371.278 165.353L367.948 161.199C367.948 161.476 367.67 161.753 367.393 162.03C367.116 162.307 367.116 162.584 366.838 162.861C366.561 163.138 366.561 163.415 366.283 163.692C365.451 164.522 364.896 165.63 364.063 166.461C363.786 166.738 363.231 167.015 362.953 167.292C362.676 167.569 362.398 167.846 361.843 168.123C361.566 168.123 361.288 168.4 361.011 168.4C360.456 168.677 359.901 168.677 359.346 168.954C358.791 169.231 358.513 169.231 358.236 169.231C357.958 169.508 357.403 169.508 357.126 169.508C355.461 169.785 352.964 169.508 350.189 169.231C349.634 169.231 349.356 168.954 348.801 168.954C348.246 168.954 347.969 168.677 347.414 168.677C347.136 168.677 347.136 168.4 346.859 168.4C346.582 168.4 346.304 168.123 346.027 168.123C345.749 168.123 345.194 167.846 344.917 167.569C344.639 167.292 344.362 167.292 344.084 167.015C343.807 166.738 343.807 166.738 343.807 166.738C343.529 166.461 343.252 166.184 342.974 165.907C342.697 165.63 342.419 165.353 342.142 165.076C341.864 164.799 341.864 164.522 341.587 164.245V163.969C341.587 163.692 341.587 163.692 341.587 163.692C341.309 163.415 341.309 162.861 341.032 162.584C340.754 162.03 340.754 161.753 340.477 161.199C340.199 160.922 340.199 160.645 340.199 160.368C339.922 159.814 339.644 158.983 339.644 158.429C339.644 158.429 339.644 158.152 339.644 157.875C339.367 157.321 339.367 157.044 339.367 156.767C339.089 155.105 339.089 153.72 339.089 152.336L370.445 150.951L376.55 150.397C377.105 146.519 377.105 143.195 376.828 140.149C376.55 139.595 376.55 139.318 376.55 138.764V138.487C376.55 137.933 376.273 137.656 376.273 137.102V136.825C376.273 136.548 375.995 135.994 375.995 135.717C375.995 135.163 375.718 134.886 375.718 134.609C375.718 134.055 375.718 133.778 375.44 133.501C374.608 131.286 373.22 129.624 371.833 127.962C371.278 127.685 371 127.408 370.723 127.131C370.168 126.854 369.89 126.3 369.335 126.023C366.838 124.084 364.063 122.699 361.288 121.869C361.011 121.869 360.456 121.592 360.178 121.592H359.901C359.068 121.315 358.513 121.038 357.681 121.038C356.848 121.038 356.016 120.761 355.184 120.761C354.906 120.761 354.351 120.761 354.074 120.761C353.519 120.484 352.686 120.484 351.854 120.484C351.576 120.484 351.299 120.484 351.021 120.484C350.189 120.484 349.634 120.484 348.801 120.484C347.691 120.484 346.582 120.761 345.194 120.761C344.362 120.761 343.529 120.761 342.697 121.038C341.864 121.038 340.754 121.315 339.922 121.592C339.644 121.592 339.367 121.869 339.089 121.869H338.812C338.534 121.869 338.257 122.145 337.979 122.145H337.702H337.424C337.147 122.422 336.592 122.422 336.314 122.699C336.314 122.976 336.037 122.976 336.037 122.976C335.76 122.976 335.76 122.976 335.76 122.976C335.205 123.253 334.65 123.53 334.372 123.807C333.817 123.807 333.54 124.084 333.262 124.361C332.985 124.361 332.985 124.638 332.707 124.638C332.152 124.915 331.875 125.469 331.32 125.746C331.042 126.023 330.765 126.3 330.487 126.577C330.21 126.854 330.21 126.854 329.932 127.131L329.655 127.408L329.377 127.685C325.215 132.394 321.885 139.318 322.163 149.289C322.163 153.72 322.995 157.598 324.105 161.476Z" fill="white"/>
<path d="M243.634 160.645L243.911 165.353L261.948 152.89L265.278 192.497L266.943 214.101L286.644 197.482L286.089 182.526L311.618 209.115L352.686 206.069L352.964 202.468L353.519 197.482L354.351 189.173L321.053 192.497L301.906 168.954L319.943 128.239L299.964 128.793L284.702 161.476L275.545 131.009L240.582 144.303L241.969 152.336L243.634 160.645Z" fill="white"/>
<path d="M140.964 275.312C140.964 275.035 140.964 274.758 140.964 274.481C140.964 272.819 142.074 271.434 143.738 270.326C147.901 267.28 156.503 265.064 164.55 263.956C165.382 263.956 165.937 263.679 166.492 263.679C166.77 263.679 167.047 263.679 167.325 263.679C167.602 263.679 167.602 263.679 167.88 263.679C168.157 263.679 168.157 263.679 168.435 263.679C171.21 263.125 173.985 262.848 176.204 262.848L171.487 247.338C168.99 247.338 166.215 247.338 163.44 247.338H162.885C155.393 247.615 147.901 248.723 141.241 250.938C140.131 251.492 139.021 251.769 137.911 252.323C128.199 255.647 117.655 264.787 120.985 283.067C123.759 298.578 141.519 296.362 145.403 294.977C145.403 294.977 154.838 293.315 157.89 295.254C159.278 296.639 161.22 299.686 160.388 301.071C159.833 302.732 154.56 304.948 140.409 306.333C135.136 306.61 130.142 306.887 127.089 307.164L127.367 307.718L135.691 328.768C142.351 327.106 157.89 322.951 168.99 317.689C182.587 311.319 190.356 303.84 183.974 289.992C176.482 271.711 142.628 283.067 140.964 275.312Z" fill="white"/>
<path d="M410.681 213.824L407.628 209.669L397.639 212.716L393.477 213.824L385.707 216.04H385.429V284.452L389.314 284.175L403.189 283.621V258.417L417.34 253.985L429.272 273.927L432.047 273.096L438.707 270.88L451.471 267.003L410.681 213.824ZM400.414 243.183V227.672L411.513 243.183H400.414Z" fill="white"/>
<path d="M399.581 201.914L399.859 199.421L402.633 169.231L418.45 189.45L428.162 201.914L446.199 188.342L414.565 156.767C415.953 156.767 417.895 156.767 419.56 156.49C420.115 156.49 420.67 156.49 421.225 156.213C422.335 155.936 423.168 155.659 424 155.382C425.387 154.828 426.497 154.274 427.607 153.72C427.885 153.72 427.885 153.444 428.162 153.444L428.44 153.167C428.717 152.89 428.995 152.89 429.272 152.613C429.55 152.336 429.827 152.336 430.105 152.059C430.382 151.505 430.937 151.228 431.492 150.674C434.267 148.181 436.209 145.134 437.042 141.257C437.319 140.98 437.319 140.426 437.319 140.149C437.597 139.595 437.597 139.318 437.597 138.764C437.597 138.21 437.597 137.933 437.597 137.379C437.597 136.271 437.597 135.163 437.319 134.055C434.822 118.268 426.775 109.128 409.571 109.959C409.016 110.236 408.183 110.236 407.628 110.236C407.073 110.236 406.241 110.513 405.686 110.513C405.408 110.79 404.853 110.79 404.576 110.79C401.801 111.344 398.749 111.897 395.696 112.728C395.141 112.728 394.864 112.728 394.309 113.005C391.811 113.559 389.314 114.39 386.539 115.498L380.99 117.437V117.714V119.93L382.654 149.289V149.566L382.932 156.49L383.209 161.199L383.487 165.63L384.319 183.634L385.152 201.637V201.914H399.581Z" fill="white"/>
<path d="M253.623 194.99L245.576 181.695L244.744 180.31L230.869 157.598L225.597 149.012L203.676 155.105L203.398 157.875L196.183 226.288V226.565L199.236 226.011L212 223.795L214.22 223.518V201.083L230.592 196.651L233.089 199.698L245.576 214.932L246.131 215.763L246.963 215.209L248.073 214.378L254.733 211.054L261.115 207.453L253.623 194.99Z" fill="white"/>
<path d="M288.864 221.025L277.764 222.964L274.99 223.518L272.492 224.072L271.937 226.288L259.728 282.79L256.953 295.254L256.398 297.193L259.728 296.916L274.712 296.085V295.808L278.597 272.265L293.581 270.88L293.859 271.157H293.581L307.178 291.1L318.832 286.114L323.272 283.898L316.613 271.988L288.864 221.025Z" fill="white"/>
<path d="M371.832 260.632L344.361 266.726L341.864 216.04L321.885 221.025L331.319 290.269L377.66 287.499L375.717 278.636L371.832 260.632Z" fill="white"/>
<path d="M428.162 216.87L464.513 189.727L437.042 161.753C437.319 161.476 437.597 161.476 437.874 161.199C445.644 155.105 451.194 145.134 449.251 132.393C447.031 118.822 440.927 105.527 425.943 100.265C412.623 95.556 395.696 98.6027 376.55 106.635L368.78 111.067C361.843 108.02 354.351 107.466 348.801 107.466C341.864 107.466 332.429 109.128 324.382 116.052L324.105 116.329L292.471 117.16L287.477 127.962L283.869 115.498L231.702 135.163L211.723 140.703H211.445L202.843 143.195L193.131 145.688L188.691 181.972L179.812 144.857L132.361 158.429L129.032 181.695L106.555 166.184L57.9949 187.234L99.3404 271.157L110.162 266.726C107.388 275.866 108.22 283.898 111.827 290.822C114.88 296.916 120.152 300.794 122.372 302.732C122.649 303.009 122.927 303.009 122.927 303.286L111.272 304.671L128.477 342.894L138.189 340.678C144.848 339.016 161.775 334.584 173.707 328.768C181.477 325.167 187.581 319.905 190.356 312.426L191.744 320.182L229.204 313.811L284.424 307.164L286.367 295.531H295.246L302.183 306.056L414.566 295.254V273.65L423.445 288.33L470.895 273.373L428.162 216.87ZM168.99 317.689C157.89 322.951 142.351 327.106 135.691 328.768L127.367 307.718L127.089 307.164C130.141 306.887 135.136 306.61 140.408 306.333C154.56 304.948 159.833 302.732 160.388 301.07C161.22 299.686 159.278 296.639 157.89 295.254C154.838 293.315 145.403 294.977 145.403 294.977C141.518 296.362 123.759 298.578 120.984 283.067C117.655 264.787 128.199 255.647 137.911 252.323C139.021 251.769 140.131 251.492 141.241 250.938C147.901 248.722 155.393 247.615 162.885 247.338H163.44C166.215 247.338 168.99 247.338 171.487 247.338L176.204 262.848C173.984 262.848 171.21 263.125 168.435 263.679C168.157 263.679 168.157 263.679 167.88 263.679C168.157 263.679 168.435 263.679 168.712 263.402C168.435 263.402 167.88 263.679 167.325 263.679C167.047 263.679 166.77 263.679 166.492 263.679C165.937 263.679 165.382 263.956 164.55 263.956C156.503 265.064 147.901 267.28 143.738 270.326C142.073 271.434 140.963 272.819 140.963 274.481C140.963 274.758 140.963 275.035 140.963 275.312C142.628 283.067 176.482 271.711 183.974 289.992C190.356 303.84 182.586 311.319 168.99 317.689ZM183.696 229.888L163.717 235.151L158.168 206.899L143.183 229.334L117.655 214.378L127.089 245.122C124.592 246.507 122.372 248.169 120.429 250.107L105.445 256.201L74.3666 193.328L105.445 179.756L138.466 202.745L143.461 167.846L171.487 159.814L185.361 217.978L188.136 229.057L183.696 229.888ZM329.377 127.685L329.932 127.131C330.21 126.854 330.21 126.854 330.487 126.577C330.764 126.3 331.042 126.023 331.319 125.746C331.874 125.469 332.152 124.915 332.707 124.638C332.984 124.638 332.984 124.361 333.262 124.361C333.539 124.084 333.817 123.807 334.372 123.807C334.649 123.53 335.204 123.253 335.759 122.976C335.759 122.976 335.759 122.976 336.037 122.976C336.037 122.976 336.314 122.976 336.314 122.699C336.592 122.422 337.147 122.422 337.424 122.145H337.702H337.979C338.257 122.145 338.534 121.868 338.812 121.868H339.089C339.367 121.868 339.644 121.592 339.922 121.592C340.754 121.315 341.864 121.038 342.696 121.038C343.529 120.761 344.361 120.761 345.194 120.761C346.581 120.761 347.691 120.484 348.801 120.484C349.634 120.484 350.189 120.484 351.021 120.484C351.299 120.484 351.576 120.484 351.854 120.484C352.686 120.484 353.518 120.484 354.073 120.761C354.351 120.761 354.906 120.761 355.183 120.761C356.016 120.761 356.848 121.038 357.681 121.038C358.513 121.038 359.068 121.315 359.901 121.592H360.178C360.456 121.592 361.011 121.868 361.288 121.868C364.063 122.699 366.838 124.084 369.335 126.023C369.89 126.3 370.168 126.854 370.723 127.131C371 127.408 371.278 127.685 371.833 127.962C373.22 129.624 374.607 131.286 375.44 133.501C375.717 133.778 375.717 134.055 375.717 134.609C375.717 134.886 375.995 135.163 375.995 135.717C375.995 135.994 376.272 136.548 376.272 136.825V137.102C376.272 137.656 376.55 137.933 376.55 138.487V138.764C376.55 139.318 376.55 139.595 376.827 140.149C377.105 143.195 377.105 146.519 376.55 150.397L370.445 150.951L339.089 152.336C339.089 153.72 339.089 155.105 339.367 156.767C339.367 157.044 339.367 157.321 339.644 157.875C339.644 158.152 339.644 158.429 339.644 158.429C339.644 158.983 339.922 159.814 340.199 160.368C340.199 160.645 340.199 160.922 340.477 161.199C340.754 161.753 340.754 162.03 341.031 162.584C341.309 162.861 341.309 163.415 341.586 163.692C341.586 163.692 341.586 163.692 341.586 163.968V164.245C341.864 164.522 341.864 164.799 342.141 165.076C342.419 165.353 342.696 165.63 342.974 165.907C343.251 166.184 343.529 166.461 343.806 166.738C343.806 166.738 343.806 166.738 344.084 167.015C344.361 167.292 344.639 167.292 344.916 167.569C345.194 167.846 345.749 168.123 346.026 168.123C346.304 168.123 346.581 168.4 346.859 168.4C347.136 168.4 347.136 168.677 347.414 168.677C347.969 168.677 348.246 168.954 348.801 168.954C349.356 168.954 349.634 169.231 350.189 169.231C352.963 169.508 355.461 169.785 357.126 169.508C357.403 169.508 357.958 169.508 358.236 169.231C358.513 169.231 358.791 169.231 359.346 168.954C359.901 168.677 360.456 168.677 361.011 168.4C361.288 168.4 361.566 168.123 361.843 168.123C362.398 167.846 362.675 167.569 362.953 167.292C363.23 167.015 363.785 166.738 364.063 166.461C364.895 165.63 365.45 164.522 366.283 163.692C366.56 163.415 366.56 163.138 366.838 162.861C367.115 162.584 367.115 162.307 367.393 162.03C367.67 161.753 367.948 161.476 367.948 161.199L371.278 165.353L377.382 173.109C377.382 173.386 377.105 173.663 376.827 173.663C376.55 173.94 376.55 174.217 376.272 174.217C375.162 175.047 373.775 176.155 371.833 177.263C370.445 178.094 369.058 178.925 367.393 179.479C366.838 179.756 366.283 180.033 365.728 180.31C365.173 180.587 364.34 180.864 363.785 181.141C363.508 181.141 363.23 181.418 363.23 181.418C362.675 181.695 362.398 181.695 361.843 181.972C361.288 182.249 360.456 182.526 359.901 182.526C359.346 182.803 358.513 182.803 357.958 183.08C357.958 183.08 357.958 183.08 357.681 183.08C357.126 183.08 356.571 183.357 356.016 183.357C355.183 183.357 354.351 183.634 353.518 183.634C352.963 183.634 352.131 183.634 351.576 183.634C350.466 183.634 349.356 183.634 348.246 183.357C344.084 182.526 340.199 181.141 336.869 178.648C332.429 175.601 328.545 171.447 325.77 166.461C325.492 165.907 325.215 165.63 325.215 165.076V164.799C324.937 164.245 324.937 163.968 324.66 163.415C324.66 163.138 324.382 162.861 324.382 162.584C324.382 162.307 324.105 161.753 324.105 161.476V161.199C322.995 157.598 322.162 153.72 322.162 149.289C321.885 139.318 325.215 132.393 329.377 127.685ZM275.545 131.009L284.702 161.476L299.963 128.793L319.943 128.239L301.906 168.954L321.052 192.497L354.351 189.173L353.518 197.482L352.963 202.468L352.686 206.069L311.618 209.115L286.089 182.526L286.644 197.482L266.942 214.101L265.278 192.497L261.948 152.89L243.911 165.353L243.634 160.645L241.969 152.336L240.581 144.303L275.545 131.009ZM232.534 298.855L230.592 271.988L212 275.035L215.885 303.84L201.456 306.333L188.969 242.075L205.34 235.705L209.225 261.186L227.262 258.694L224.21 229.334L247.241 226.842V298.855H232.534ZM248.073 214.378L246.963 215.209L246.131 215.763L245.576 214.932L233.089 199.698L230.592 196.651L214.22 201.083V223.518L212 223.795L199.236 226.011L196.183 226.565V226.288L203.398 157.875L203.675 155.105L225.597 149.012L230.869 157.598L244.744 180.31L245.576 181.695L253.623 194.99L261.115 207.453L254.733 211.054L248.073 214.378ZM318.833 286.114L307.178 291.099L293.581 271.157H293.859L293.581 270.88L278.597 272.265L274.712 295.808V296.085L259.728 296.916L256.398 297.193L256.953 295.254L259.728 282.79L271.937 226.288L272.492 224.072L274.99 223.518L277.764 222.964L288.864 221.025L316.613 271.988L323.272 283.898L318.833 286.114ZM331.319 290.269L321.885 221.025L341.864 216.04L344.361 266.726L371.833 260.632L375.717 278.636L377.66 287.499L331.319 290.269ZM384.319 183.634L383.487 165.63L383.21 161.199L382.932 156.49L382.655 149.566V149.289L380.99 119.93V117.714V117.437L386.539 115.498C389.314 114.39 391.812 113.559 394.309 113.005C394.864 112.728 395.141 112.728 395.696 112.728C398.749 111.897 401.801 111.343 404.576 110.79C404.853 110.79 405.408 110.79 405.686 110.513C406.241 110.513 407.073 110.236 407.628 110.236C408.183 110.236 409.016 110.236 409.571 109.959C426.775 109.128 434.822 118.268 437.319 134.055C437.597 135.163 437.597 136.271 437.597 137.379C437.597 137.933 437.597 138.21 437.597 138.764C437.597 139.318 437.597 139.595 437.319 140.149C437.319 140.426 437.319 140.98 437.042 141.257C436.21 145.134 434.267 148.181 431.492 150.674C430.937 151.228 430.382 151.505 430.105 152.059C429.827 152.336 429.55 152.336 429.272 152.613C428.995 152.89 428.717 152.89 428.44 153.167L428.162 153.443C427.885 153.443 427.885 153.72 427.607 153.72C426.497 154.274 425.388 154.828 424 155.382C423.168 155.659 422.335 155.936 421.225 156.213C420.67 156.49 420.115 156.49 419.56 156.49C417.895 156.767 415.953 156.767 414.566 156.767L446.199 188.342L428.162 201.914L418.45 189.45L402.634 169.231L399.859 199.421L399.581 201.914H385.152V201.637L384.319 183.634ZM432.047 273.096L429.272 273.927L417.34 253.985L403.189 258.417V283.621L389.314 284.175L385.429 284.452V216.04H385.707L393.477 213.824L397.639 212.716L407.628 209.669L410.681 213.824L451.471 267.003L438.707 270.88L432.047 273.096Z" fill="#00A3FF"/>
<path d="M405.686 144.027C405.963 144.027 406.241 144.027 406.796 143.75C407.351 143.75 407.628 143.473 408.183 143.473C408.183 143.473 408.183 143.473 408.461 143.473C409.016 143.473 409.848 143.196 410.403 142.919C411.236 142.642 412.068 142.365 412.623 142.088C412.901 142.088 413.178 141.811 413.178 141.811C413.456 141.811 413.456 141.534 413.733 141.534C415.953 140.149 418.173 137.656 418.173 133.502C418.173 132.117 417.895 131.286 417.618 130.178C416.785 127.408 414.566 126.577 410.958 125.192C410.681 125.192 410.403 125.192 409.848 125.192C409.571 125.192 409.016 125.192 408.738 125.192C408.461 125.192 407.906 125.192 407.351 125.192C406.518 125.192 405.408 125.192 404.576 125.192C403.189 125.192 401.801 125.192 400.136 125.192V125.746V144.027V144.581C401.246 144.581 402.634 144.581 404.299 144.304C404.853 144.304 405.408 144.304 405.686 144.027Z" fill="#00A3FF"/>
<path d="M362.676 139.872C362.398 138.764 362.398 138.764 362.398 138.487C362.398 138.21 362.398 137.933 362.398 137.656C362.398 137.379 362.398 137.102 362.121 137.102C362.121 136.825 361.843 136.271 361.566 135.994C361.288 135.717 361.288 135.44 361.011 135.163C359.068 133.224 356.016 131.286 349.634 130.732C347.136 130.732 345.194 131.563 344.084 132.671C343.806 132.947 343.529 133.224 343.251 133.501C342.974 133.778 342.419 134.332 342.142 134.609C341.587 135.163 341.309 135.717 341.032 136.271C340.754 136.548 340.754 136.825 340.477 137.102C339.922 138.487 339.367 139.872 339.367 140.98L362.676 140.703C362.676 140.426 362.676 140.149 362.676 139.872Z" fill="#00A3FF"/>
<path d="M400.414 227.396V227.672V242.906V243.183H411.513L411.236 242.906H411.513L400.414 227.396Z" fill="#00A3FF"/>
<path d="M278.32 258.14H288.864V257.586L280.817 241.798L278.32 258.14Z" fill="#00A3FF"/>
<path d="M213.665 184.741L223.1 181.695L215.053 169.231L213.665 184.741Z" fill="#00A3FF"/>
<path d="M236.974 84.7541C255.01 33.514 277.487 20.4962 286.366 20.2192C300.241 23.8199 300.796 53.733 303.848 41.2692C306.9 28.8054 312.45 -1.6617 281.372 0.277118C256.675 1.93896 235.309 57.0567 227.817 84.4771C223.654 105.804 219.215 135.717 236.974 84.7541Z" fill="#00A3FF"/>
<path d="M305.513 79.7686L298.021 77.2758C296.079 76.7219 294.691 78.9376 296.079 80.5995L301.073 86.9699C301.628 87.5238 301.628 88.6317 301.073 89.1857L296.634 96.11C295.524 97.7719 297.189 99.7107 299.131 99.1567L306.623 96.11C307.456 95.833 308.288 96.11 308.843 96.664L313.838 103.034C314.948 104.419 317.445 103.588 317.445 101.649L316.89 93.6173C316.89 92.7863 317.445 91.9554 318.278 91.6784L325.77 88.6317C327.712 87.8008 327.435 85.308 325.492 84.7541L317.723 82.8153C316.89 82.5383 316.335 81.9844 316.335 80.8765L315.78 72.8442C315.78 70.9054 313.283 70.3515 312.173 72.0133L307.733 78.9376C307.178 79.7686 306.346 80.0455 305.513 79.7686Z" fill="#00A3FF"/>
<path d="M23.309 159.814C33.8535 146.242 103.225 153.72 104.335 147.904C105.445 141.811 86.8535 139.318 56.33 139.872C25.8064 140.426 4.71741 143.472 2.49751 159.814C-0.554845 180.587 27.4713 197.759 31.0787 192.774C35.7959 185.849 13.8745 172.001 23.309 159.814Z" fill="#00A3FF"/>
<path d="M480.33 65.0889C494.759 82.8152 455.356 126.023 465.9 126.854C476.445 127.962 509.743 63.1501 489.764 48.1935C473.67 36.2836 428.162 63.1501 407.351 78.1067C400.414 94.4481 465.623 47.3626 480.33 65.0889Z" fill="#00A3FF"/>
<path d="M57.995 378.069C43.5656 360.343 82.9688 317.135 72.4243 316.304C61.8798 315.196 28.5813 380.008 48.5604 394.965C64.6546 406.874 110.162 380.008 130.974 365.051C137.911 348.71 72.4243 395.796 57.995 378.069Z" fill="#00A3FF"/>
<path d="M472.838 236.536C455.079 234.597 521.121 283.344 508.356 302.178C495.592 321.29 441.759 300.24 443.147 306.333C445.367 316.581 516.958 329.876 525.56 306.333C532.22 287.776 493.094 252.046 472.838 236.536Z" fill="#00A3FF"/>
<path d="M286.089 379.731C281.094 377.238 268.607 404.659 253.068 402.166C237.529 399.673 231.702 365.605 225.319 368.375C223.377 384.44 236.696 418.23 253.346 420.723C269.717 422.939 291.084 382.224 286.089 379.731Z" fill="#00A3FF"/>
<path d="M87.1311 293.869C87.1311 290.269 84.3562 287.499 80.7489 287.499C77.1416 287.499 74.3667 290.269 74.3667 293.869C74.3667 297.47 77.1416 300.24 80.7489 300.24C84.3562 300.24 87.1311 297.47 87.1311 293.869Z" fill="#00A3FF"/>
<path d="M314.393 313.257C306.901 309.103 298.576 310.488 292.194 314.919C285.812 319.628 281.649 327.66 281.649 337.631C281.649 345.94 284.424 352.034 288.032 355.911C291.639 359.789 296.356 361.728 299.409 362.836C301.628 363.39 303.848 362.282 304.403 360.066C304.958 357.85 303.848 355.634 301.628 355.08C299.131 354.249 296.356 353.142 293.859 350.372C291.639 347.879 289.419 344.001 289.419 337.354C289.419 329.876 292.749 324.059 296.911 321.013C301.073 317.966 306.068 317.412 310.508 319.905C316.058 322.951 318.833 325.998 320.22 329.045C321.608 332.092 321.885 335.138 321.608 338.462C321.33 340.124 319.665 342.617 316.89 344.278C314.115 345.663 310.786 345.94 307.456 343.724C304.126 341.509 303.293 338.462 303.571 336.246C303.848 334.03 305.236 332.922 306.623 332.922C308.843 332.922 310.508 331.261 310.508 329.045C310.508 326.829 308.843 325.167 306.623 325.167C300.241 325.167 296.356 330.153 295.524 335.415C294.691 340.678 297.189 346.771 303.016 350.372C309.121 354.526 315.78 353.972 320.775 351.48C325.492 348.987 329.1 344.278 329.655 339.847C330.21 335.692 329.932 330.707 327.712 325.998C325.215 321.013 320.775 316.858 314.393 313.257Z" fill="#00A3FF"/>
<path d="M127.644 247.06L120.152 250.107C122.372 248.168 124.592 246.506 126.812 245.122L127.644 247.06Z" fill="white"/>
<path d="M127.089 260.078C126.812 260.632 126.257 260.909 125.979 261.463C126.257 261.186 126.257 260.909 126.534 260.909C126.812 260.632 126.812 260.355 127.089 260.078Z" fill="white"/>
</g>
<defs>
<clipPath id="clip0">
<rect width="530" height="421" fill="white"/>
</clipPath>
</defs>
</svg>
